<svg xmlns="http://www.w3.org/2000/svg" width="512" height="512" viewBox="0 0 512 512" version="1.1"><path d="M 135 23.054 C 119.262 25.007, 100.515 30.731, 85.712 38.103 C 78.020 41.934, 76.051 44.283, 76.022 49.661 C 76.004 53.094, 76.538 54.275, 79.077 56.411 C 83.336 59.995, 87.160 59.721, 97.120 55.119 C 115.939 46.425, 132.958 42.688, 153.500 42.738 C 187.104 42.820, 218.060 55.165, 244.286 78.941 C 251.164 85.177, 252.532 86, 256.016 86 C 259.443 86, 260.846 85.197, 266.721 79.873 C 288.359 60.263, 309.245 49.375, 334.957 44.301 C 347.657 41.794, 370.418 42.085, 383.957 44.927 C 460.047 60.899, 504.624 132.654, 488.370 213 C 480.009 254.332, 457.543 296.617, 420 341.685 C 374.195 396.672, 305.295 451.401, 262.218 467.014 L 255.937 469.291 248.718 466.493 C 197.360 446.585, 121.510 382.944, 76.019 321.591 C 43.595 277.861, 25.703 237.145, 21.047 196.493 C 18.248 172.066, 21.472 147.564, 30.430 125.175 C 35.122 113.449, 35.107 110.179, 30.345 105.998 C 27.269 103.298, 26.137 102.878, 23.201 103.355 C 21.283 103.666, 18.702 104.871, 17.466 106.032 C 12.388 110.802, 3.424 138.858, 0.887 157.920 C -0.620 169.245, 0.289 199.826, 2.494 212 C 11.226 260.206, 37.818 310.149, 82.362 362 C 93.951 375.489, 125.464 407.007, 139 418.646 C 179.436 453.413, 219.196 478.560, 248.764 488.067 L 256.029 490.403 264.635 487.600 C 293.331 478.255, 333.268 452.839, 373 418.635 C 396.834 398.117, 429.747 363.259, 449.136 338 C 483.750 292.905, 506.437 243.176, 510.624 203.222 C 510.986 199.769, 511.669 196.705, 512.141 196.413 C 512.613 196.121, 513 187.782, 513 177.882 C 513 167.882, 512.612 160.122, 512.127 160.422 C 511.647 160.718, 510.941 158.197, 510.559 154.818 C 509.454 145.055, 504.598 127.264, 500.087 116.452 C 489.628 91.386, 471.785 68.665, 449.500 52.037 C 440.821 45.561, 422.676 35.821, 411.482 31.630 C 380.497 20.029, 344.738 19.110, 313.241 29.104 C 295.244 34.816, 273.442 46.802, 260.813 57.930 L 256.125 62.060 248.291 55.735 C 229.003 40.163, 205.323 29.324, 180 24.477 C 169.824 22.529, 145.441 21.758, 135 23.054 M 45.383 67.583 C 41.819 69.341, 39.986 72.669, 40.032 77.297 C 40.072 81.380, 41.775 83.590, 46.352 85.503 C 55.316 89.248, 63.363 79.501, 58.335 70.990 C 55.462 66.127, 50.813 64.904, 45.383 67.583 M 197 113.876 C 189.244 116.428, 181.182 122.935, 176.589 130.349 C 173.503 135.330, 170.934 144.261, 170.360 152 C 168.846 172.429, 179.611 193.252, 195.807 201.226 C 201.659 204.107, 203.422 204.498, 210.479 204.485 C 222.616 204.462, 230.939 199.846, 237.963 189.243 C 244.597 179.227, 247.029 161.213, 243.525 148.045 C 238.170 127.923, 223.498 114.118, 206.673 113.371 C 202.728 113.196, 198.375 113.423, 197 113.876 M 297.096 114.447 C 286.234 117.981, 276.338 128.027, 270.761 141.180 C 268.083 147.497, 267.596 150.019, 267.209 159.583 C 266.739 171.202, 268.003 178.175, 271.989 185.970 C 275.130 192.111, 281.808 198.759, 287.786 201.694 C 292.605 204.061, 294.756 204.500, 301.521 204.500 C 308.562 204.500, 310.355 204.100, 316.193 201.226 C 324.346 197.212, 331.704 189.501, 336.029 180.438 C 350.538 150.038, 336.027 114.675, 308.500 113.351 C 304.233 113.146, 299.781 113.573, 297.096 114.447 M 198.033 135.626 C 192.365 140.395, 190.500 145.340, 190.500 155.601 C 190.500 164.039, 190.755 165.199, 194 171.513 C 195.977 175.360, 199.099 179.608, 201.175 181.276 C 212.783 190.602, 225.404 180.799, 225.289 162.546 C 225.161 142.182, 209.097 126.316, 198.033 135.626 M 300.085 134.728 C 292.741 138.345, 286.821 150.421, 286.709 162.013 C 286.528 180.745, 299.043 190.742, 310.825 181.276 C 312.901 179.608, 316.023 175.360, 318 171.513 C 321.245 165.199, 321.500 164.039, 321.500 155.601 C 321.500 148.129, 321.105 145.762, 319.294 142.376 C 314.613 133.625, 307.817 130.919, 300.085 134.728 M 0.415 179 C 0.415 189.175, 0.564 193.338, 0.745 188.250 C 0.927 183.162, 0.927 174.837, 0.745 169.750 C 0.564 164.662, 0.415 168.825, 0.415 179 M 127.734 186.046 C 99.909 192.911, 94.420 232.983, 118.004 257.085 C 136.610 276.100, 162.559 273.860, 173.161 252.324 C 179.168 240.123, 177.969 222.353, 170.239 209.015 C 165.017 200.002, 155.110 191.144, 146.482 187.772 C 141.173 185.697, 132.417 184.891, 127.734 186.046 M 371.932 185.972 C 365.519 187.109, 357.605 191.360, 351.709 196.834 C 329.059 217.862, 329.573 255.366, 352.670 266.998 C 359.112 270.242, 368.890 270.854, 376.166 268.467 C 402.824 259.723, 417.364 223.920, 403.672 200.736 C 396.933 189.326, 384.812 183.688, 371.932 185.972 M 130.096 206.265 C 125.075 208.845, 123.498 212.462, 123.527 221.327 C 123.549 227.954, 124.002 230.351, 125.921 234 C 131.433 244.478, 138.260 250, 145.703 250 C 153.757 250, 157.611 243.771, 156.774 232.109 C 156.016 221.547, 149.066 210.767, 140.500 206.866 C 135.790 204.721, 133.373 204.581, 130.096 206.265 M 371.500 206.817 C 366.799 209.015, 360.982 215.162, 357.885 221.205 C 355.166 226.510, 354.133 238.493, 356.005 243.013 C 362.823 259.472, 387.027 244.997, 388.758 223.424 C 389.884 209.401, 382.065 201.878, 371.500 206.817 M 242 216.608 C 224.092 221.416, 211.350 232.408, 201.901 251.198 C 196.884 261.175, 193.728 264.653, 183.375 271.613 C 173.157 278.482, 166.085 286.129, 161.518 295.246 C 148.042 322.146, 156.690 353.563, 182.089 369.979 C 190.356 375.322, 198.824 378.012, 209.500 378.686 C 220.610 379.387, 227.415 377.806, 241.475 371.256 C 254.667 365.110, 257.333 365.110, 270.525 371.256 C 284.585 377.806, 291.390 379.387, 302.500 378.686 C 313.827 377.971, 322.079 375.173, 331.558 368.833 C 351.542 355.467, 360.973 330.856, 355.025 307.596 C 351.117 292.319, 342.841 281.031, 328.738 271.742 C 318.684 265.121, 315.140 261.216, 310.090 251.198 C 300.469 232.114, 287.799 221.287, 269.540 216.547 C 262.138 214.626, 249.278 214.654, 242 216.608 M 244.079 236.586 C 233.505 240.424, 226.696 247.145, 219.440 260.907 C 213.368 272.423, 206.135 280.404, 195.035 287.834 C 184.797 294.687, 179.739 300.950, 176.850 310.349 C 171.378 328.155, 179.732 347.116, 196.750 355.513 C 201.197 357.707, 204.313 358.446, 210.500 358.775 C 219.192 359.236, 221.549 358.564, 240 350.360 C 247.403 347.069, 249.468 346.583, 256 346.598 C 261.982 346.612, 264.816 347.183, 270 349.421 C 292.988 359.344, 292.728 359.267, 301.406 358.787 C 307.902 358.427, 310.685 357.734, 315.500 355.275 C 332.525 346.581, 340.607 328.103, 335.150 310.349 C 332.294 301.055, 327.275 294.839, 317 287.865 C 305.716 280.207, 298.587 272.339, 292.549 260.882 C 286.544 249.486, 280.502 242.800, 272.516 238.715 C 267.366 236.079, 265.205 235.589, 257.500 235.309 C 251.050 235.074, 247.247 235.436, 244.079 236.586" stroke="none" fill="#050404" fill-rule="evenodd"/><path d="M 141 42.964 C 125.950 44.516, 111.268 48.583, 97.120 55.119 C 87.700 59.472, 83.453 59.931, 79.727 57 C 78.329 55.900, 76.757 55, 76.235 55 C 75.231 55, 63.033 63.817, 59.289 67.248 C 57.289 69.082, 57.217 69.472, 58.539 71.360 C 61.935 76.208, 59.443 83.081, 53.369 85.619 C 50.458 86.836, 49.527 86.829, 46.519 85.572 L 43.037 84.118 39.637 88.309 C 37.767 90.614, 34.567 95.132, 32.525 98.348 L 28.813 104.196 31.407 106.903 C 34.950 110.601, 34.747 114.384, 30.430 125.175 C 1.982 196.279, 32.909 282.884, 118 370.392 C 161.648 415.280, 211.892 452.219, 248.718 466.493 L 255.937 469.291 262.218 467.014 C 297.284 454.304, 350.748 415.001, 395 369.402 C 475.581 286.367, 507.380 202.743, 484.452 134.160 C 468.929 87.727, 432.111 55.035, 383.957 44.927 C 370.418 42.085, 347.657 41.794, 334.957 44.301 C 309.245 49.375, 288.359 60.263, 266.721 79.873 C 260.846 85.197, 259.443 86, 256.016 86 C 252.532 86, 251.164 85.177, 244.286 78.941 C 235.461 70.941, 221.765 61.417, 212.061 56.532 C 191.283 46.074, 163.074 40.688, 141 42.964 M 197 113.876 C 189.244 116.428, 181.182 122.935, 176.589 130.349 C 173.503 135.330, 170.934 144.261, 170.360 152 C 168.846 172.429, 179.611 193.252, 195.807 201.226 C 201.659 204.107, 203.422 204.498, 210.479 204.485 C 222.616 204.462, 230.939 199.846, 237.963 189.243 C 244.597 179.227, 247.029 161.213, 243.525 148.045 C 238.170 127.923, 223.498 114.118, 206.673 113.371 C 202.728 113.196, 198.375 113.423, 197 113.876 M 297.096 114.447 C 286.234 117.981, 276.338 128.027, 270.761 141.180 C 268.083 147.497, 267.596 150.019, 267.209 159.583 C 266.739 171.202, 268.003 178.175, 271.989 185.970 C 275.130 192.111, 281.808 198.759, 287.786 201.694 C 292.605 204.061, 294.756 204.500, 301.521 204.500 C 308.562 204.500, 310.355 204.100, 316.193 201.226 C 324.346 197.212, 331.704 189.501, 336.029 180.438 C 350.538 150.038, 336.027 114.675, 308.500 113.351 C 304.233 113.146, 299.781 113.573, 297.096 114.447 M 198.033 135.626 C 192.365 140.395, 190.500 145.340, 190.500 155.601 C 190.500 164.039, 190.755 165.199, 194 171.513 C 195.977 175.360, 199.099 179.608, 201.175 181.276 C 212.783 190.602, 225.404 180.799, 225.289 162.546 C 225.161 142.182, 209.097 126.316, 198.033 135.626 M 300.085 134.728 C 292.741 138.345, 286.821 150.421, 286.709 162.013 C 286.528 180.745, 299.043 190.742, 310.825 181.276 C 312.901 179.608, 316.023 175.360, 318 171.513 C 321.245 165.199, 321.500 164.039, 321.500 155.601 C 321.500 148.129, 321.105 145.762, 319.294 142.376 C 314.613 133.625, 307.817 130.919, 300.085 134.728 M 127.734 186.046 C 99.909 192.911, 94.420 232.983, 118.004 257.085 C 136.610 276.100, 162.559 273.860, 173.161 252.324 C 179.168 240.123, 177.969 222.353, 170.239 209.015 C 165.017 200.002, 155.110 191.144, 146.482 187.772 C 141.173 185.697, 132.417 184.891, 127.734 186.046 M 371.932 185.972 C 365.519 187.109, 357.605 191.360, 351.709 196.834 C 329.059 217.862, 329.573 255.366, 352.670 266.998 C 359.112 270.242, 368.890 270.854, 376.166 268.467 C 402.824 259.723, 417.364 223.920, 403.672 200.736 C 396.933 189.326, 384.812 183.688, 371.932 185.972 M 130.096 206.265 C 125.075 208.845, 123.498 212.462, 123.527 221.327 C 123.549 227.954, 124.002 230.351, 125.921 234 C 131.433 244.478, 138.260 250, 145.703 250 C 153.757 250, 157.611 243.771, 156.774 232.109 C 156.016 221.547, 149.066 210.767, 140.500 206.866 C 135.790 204.721, 133.373 204.581, 130.096 206.265 M 371.500 206.817 C 366.799 209.015, 360.982 215.162, 357.885 221.205 C 355.166 226.510, 354.133 238.493, 356.005 243.013 C 362.823 259.472, 387.027 244.997, 388.758 223.424 C 389.884 209.401, 382.065 201.878, 371.500 206.817 M 242 216.608 C 224.092 221.416, 211.350 232.408, 201.901 251.198 C 196.884 261.175, 193.728 264.653, 183.375 271.613 C 173.157 278.482, 166.085 286.129, 161.518 295.246 C 148.042 322.146, 156.690 353.563, 182.089 369.979 C 190.356 375.322, 198.824 378.012, 209.500 378.686 C 220.610 379.387, 227.415 377.806, 241.475 371.256 C 254.667 365.110, 257.333 365.110, 270.525 371.256 C 284.585 377.806, 291.390 379.387, 302.500 378.686 C 313.827 377.971, 322.079 375.173, 331.558 368.833 C 351.542 355.467, 360.973 330.856, 355.025 307.596 C 351.117 292.319, 342.841 281.031, 328.738 271.742 C 318.684 265.121, 315.140 261.216, 310.090 251.198 C 300.469 232.114, 287.799 221.287, 269.540 216.547 C 262.138 214.626, 249.278 214.654, 242 216.608 M 244.079 236.586 C 233.505 240.424, 226.696 247.145, 219.440 260.907 C 213.368 272.423, 206.135 280.404, 195.035 287.834 C 184.797 294.687, 179.739 300.950, 176.850 310.349 C 171.378 328.155, 179.732 347.116, 196.750 355.513 C 201.197 357.707, 204.313 358.446, 210.500 358.775 C 219.192 359.236, 221.549 358.564, 240 350.360 C 247.403 347.069, 249.468 346.583, 256 346.598 C 261.982 346.612, 264.816 347.183, 270 349.421 C 292.988 359.344, 292.728 359.267, 301.406 358.787 C 307.902 358.427, 310.685 357.734, 315.500 355.275 C 332.525 346.581, 340.607 328.103, 335.150 310.349 C 332.294 301.055, 327.275 294.839, 317 287.865 C 305.716 280.207, 298.587 272.339, 292.549 260.882 C 286.544 249.486, 280.502 242.800, 272.516 238.715 C 267.366 236.079, 265.205 235.589, 257.500 235.309 C 251.050 235.074, 247.247 235.436, 244.079 236.586" stroke="none" fill="#fa5b7b" fill-rule="evenodd"/></svg>